<mxfile host="app.diagrams.net" agent="Mozilla/5.0 (Windows NT 10.0; Win64; x64) AppleWebKit/537.36 (KHTML, like Gecko) Chrome/129.0.0.0 Safari/537.36" version="24.7.17">
  <diagram name="Page-1" id="eh0xHPyXgeDAXax65Qsj">
    <mxGraphModel dx="2537" dy="878" grid="1" gridSize="10" guides="1" tooltips="1" connect="1" arrows="1" fold="1" page="1" pageScale="1" pageWidth="850" pageHeight="1100" math="0" shadow="0">
      <root>
        <mxCell id="0" />
        <mxCell id="1" parent="0" />
        <mxCell id="dZU5WLQ4Yzbyd16j06jQ-1" value="&lt;h1&gt;Assurance Case&lt;/h1&gt;&lt;p&gt;Suricata protects the network from DoS attacks.&lt;/p&gt;" style="text;html=1;strokeColor=none;fillColor=none;spacing=5;spacingTop=-20;whiteSpace=wrap;overflow=hidden;rounded=0;" vertex="1" parent="1">
          <mxGeometry x="20" y="20" width="190" height="150" as="geometry" />
        </mxCell>
        <mxCell id="dZU5WLQ4Yzbyd16j06jQ-2" value="&lt;b&gt;Top-Claim C1:&lt;br&gt;&lt;/b&gt;&lt;span style=&quot;text-align: left;&quot;&gt;Suricata protects the network from DoS attacks.&lt;/span&gt;" style="rounded=0;whiteSpace=wrap;html=1;" vertex="1" parent="1">
          <mxGeometry x="320" y="50" width="155" height="80" as="geometry" />
        </mxCell>
        <mxCell id="dZU5WLQ4Yzbyd16j06jQ-3" value="Context: CT1&lt;br&gt;Suricata is a Network Monitoring System, Intrusion Detection and Intrustion Prevention Tool" style="rounded=1;whiteSpace=wrap;html=1;arcSize=30;" vertex="1" parent="1">
          <mxGeometry x="600" y="50" width="160" height="80" as="geometry" />
        </mxCell>
        <mxCell id="dZU5WLQ4Yzbyd16j06jQ-4" style="edgeStyle=orthogonalEdgeStyle;rounded=0;orthogonalLoop=1;jettySize=auto;html=1;exitX=1;exitY=0.5;exitDx=0;exitDy=0;entryX=0;entryY=0.5;entryDx=0;entryDy=0;endArrow=block;endFill=1;" edge="1" parent="1" target="dZU5WLQ4Yzbyd16j06jQ-3">
          <mxGeometry relative="1" as="geometry">
            <mxPoint x="475" y="89.5" as="sourcePoint" />
            <mxPoint x="580" y="89.5" as="targetPoint" />
          </mxGeometry>
        </mxCell>
        <mxCell id="dZU5WLQ4Yzbyd16j06jQ-6" value="Rebuttal R1: Unless Suricata software is not set up properly" style="shape=note;whiteSpace=wrap;html=1;backgroundOutline=1;darkOpacity=0.05;size=17;fillColor=#FFF2CC;" vertex="1" parent="1">
          <mxGeometry x="130" y="170" width="140" height="60" as="geometry" />
        </mxCell>
        <mxCell id="dZU5WLQ4Yzbyd16j06jQ-7" value="Rebuttal R2: Unless Suricata hardware is limited" style="shape=note;whiteSpace=wrap;html=1;backgroundOutline=1;darkOpacity=0.05;size=17;fillColor=#FFF2CC;" vertex="1" parent="1">
          <mxGeometry x="327.5" y="170" width="140" height="60" as="geometry" />
        </mxCell>
        <mxCell id="dZU5WLQ4Yzbyd16j06jQ-8" value="Rebuttal R3: Unless Suricata is not up to date" style="shape=note;whiteSpace=wrap;html=1;backgroundOutline=1;darkOpacity=0.05;size=17;fillColor=#FFF2CC;" vertex="1" parent="1">
          <mxGeometry x="565" y="170" width="140" height="60" as="geometry" />
        </mxCell>
        <mxCell id="dZU5WLQ4Yzbyd16j06jQ-11" value="" style="curved=1;endArrow=classic;html=1;rounded=0;entryX=0.5;entryY=0;entryDx=0;entryDy=0;exitX=0.25;exitY=1;exitDx=0;exitDy=0;entryPerimeter=0;" edge="1" parent="1" source="dZU5WLQ4Yzbyd16j06jQ-2" target="dZU5WLQ4Yzbyd16j06jQ-6">
          <mxGeometry width="50" height="50" relative="1" as="geometry">
            <mxPoint x="290" y="140" as="sourcePoint" />
            <mxPoint x="270" y="60" as="targetPoint" />
            <Array as="points">
              <mxPoint x="320" y="160" />
              <mxPoint x="220" y="130" />
            </Array>
          </mxGeometry>
        </mxCell>
        <mxCell id="dZU5WLQ4Yzbyd16j06jQ-12" value="" style="curved=1;endArrow=classic;html=1;rounded=0;" edge="1" parent="1">
          <mxGeometry width="50" height="50" relative="1" as="geometry">
            <mxPoint x="400" y="130" as="sourcePoint" />
            <mxPoint x="400" y="170" as="targetPoint" />
            <Array as="points">
              <mxPoint x="400" y="150" />
            </Array>
          </mxGeometry>
        </mxCell>
        <mxCell id="dZU5WLQ4Yzbyd16j06jQ-13" value="" style="curved=1;endArrow=classic;html=1;rounded=0;entryX=0.5;entryY=0;entryDx=0;entryDy=0;exitX=0.25;exitY=1;exitDx=0;exitDy=0;entryPerimeter=0;" edge="1" parent="1" target="dZU5WLQ4Yzbyd16j06jQ-8">
          <mxGeometry width="50" height="50" relative="1" as="geometry">
            <mxPoint x="440" y="130" as="sourcePoint" />
            <mxPoint x="589" y="170" as="targetPoint" />
            <Array as="points">
              <mxPoint x="450" y="170" />
              <mxPoint x="550" y="140" />
              <mxPoint x="620" y="140" />
              <mxPoint x="635" y="150" />
            </Array>
          </mxGeometry>
        </mxCell>
        <mxCell id="dZU5WLQ4Yzbyd16j06jQ-15" value="&lt;b&gt;Sub-Claim C3:&lt;br&gt;&lt;/b&gt;Suricata rules are created to mitigate traffic" style="rounded=0;whiteSpace=wrap;html=1;" vertex="1" parent="1">
          <mxGeometry x="-30" y="290" width="135" height="60" as="geometry" />
        </mxCell>
        <mxCell id="dZU5WLQ4Yzbyd16j06jQ-16" value="" style="curved=1;endArrow=classic;html=1;rounded=0;entryX=0.452;entryY=0;entryDx=0;entryDy=0;exitX=0.5;exitY=1;exitDx=0;exitDy=0;exitPerimeter=0;entryPerimeter=0;" edge="1" parent="1" source="dZU5WLQ4Yzbyd16j06jQ-6" target="dZU5WLQ4Yzbyd16j06jQ-15">
          <mxGeometry width="50" height="50" relative="1" as="geometry">
            <mxPoint x="169" y="250" as="sourcePoint" />
            <mxPoint x="20" y="290" as="targetPoint" />
            <Array as="points">
              <mxPoint x="170" y="260" />
              <mxPoint x="110" y="280" />
              <mxPoint x="31" y="260" />
            </Array>
          </mxGeometry>
        </mxCell>
        <mxCell id="dZU5WLQ4Yzbyd16j06jQ-17" value="Rebuttal R4: Unless rules are not properly created" style="shape=note;whiteSpace=wrap;html=1;backgroundOutline=1;darkOpacity=0.05;size=17;fillColor=#FFF2CC;" vertex="1" parent="1">
          <mxGeometry x="-150" y="410" width="140" height="60" as="geometry" />
        </mxCell>
        <mxCell id="dZU5WLQ4Yzbyd16j06jQ-19" value="Rebuttal R5: Unless rules are not set up" style="shape=note;whiteSpace=wrap;html=1;backgroundOutline=1;darkOpacity=0.05;size=17;fillColor=#FFF2CC;" vertex="1" parent="1">
          <mxGeometry x="40" y="410" width="140" height="60" as="geometry" />
        </mxCell>
        <mxCell id="dZU5WLQ4Yzbyd16j06jQ-21" value="&lt;b&gt;Sub-Claim C6:&lt;br&gt;&lt;/b&gt;Suricata rules are created" style="rounded=0;whiteSpace=wrap;html=1;" vertex="1" parent="1">
          <mxGeometry x="-150" y="520" width="140" height="60" as="geometry" />
        </mxCell>
        <mxCell id="dZU5WLQ4Yzbyd16j06jQ-22" value="&lt;b&gt;Sub-Claim C7:&lt;br&gt;&lt;/b&gt;Suricata rules are set up" style="rounded=0;whiteSpace=wrap;html=1;" vertex="1" parent="1">
          <mxGeometry x="40" y="520" width="140" height="60" as="geometry" />
        </mxCell>
        <mxCell id="dZU5WLQ4Yzbyd16j06jQ-23" value="" style="curved=1;endArrow=classic;html=1;rounded=0;entryX=0.5;entryY=0;entryDx=0;entryDy=0;" edge="1" parent="1" target="dZU5WLQ4Yzbyd16j06jQ-21">
          <mxGeometry width="50" height="50" relative="1" as="geometry">
            <mxPoint x="-80.5" y="470" as="sourcePoint" />
            <mxPoint x="-80.5" y="510" as="targetPoint" />
            <Array as="points">
              <mxPoint x="-80.5" y="490" />
            </Array>
          </mxGeometry>
        </mxCell>
        <mxCell id="dZU5WLQ4Yzbyd16j06jQ-24" value="" style="curved=1;endArrow=classic;html=1;rounded=0;entryX=0.5;entryY=0;entryDx=0;entryDy=0;" edge="1" parent="1">
          <mxGeometry width="50" height="50" relative="1" as="geometry">
            <mxPoint x="109.5" y="470" as="sourcePoint" />
            <mxPoint x="110" y="520" as="targetPoint" />
            <Array as="points">
              <mxPoint x="109.5" y="490" />
            </Array>
          </mxGeometry>
        </mxCell>
        <mxCell id="dZU5WLQ4Yzbyd16j06jQ-25" value="&lt;b&gt;Sub-Claim C4:&lt;br&gt;&lt;/b&gt;Suricata is built with needs of current business" style="rounded=0;whiteSpace=wrap;html=1;" vertex="1" parent="1">
          <mxGeometry x="332.5" y="290" width="135" height="60" as="geometry" />
        </mxCell>
        <mxCell id="dZU5WLQ4Yzbyd16j06jQ-26" value="" style="curved=1;endArrow=classic;html=1;rounded=0;entryX=0.5;entryY=0;entryDx=0;entryDy=0;" edge="1" parent="1" target="dZU5WLQ4Yzbyd16j06jQ-25">
          <mxGeometry width="50" height="50" relative="1" as="geometry">
            <mxPoint x="399.5" y="230" as="sourcePoint" />
            <mxPoint x="399.5" y="270" as="targetPoint" />
            <Array as="points">
              <mxPoint x="399.5" y="250" />
            </Array>
          </mxGeometry>
        </mxCell>
        <mxCell id="dZU5WLQ4Yzbyd16j06jQ-27" value="&lt;b&gt;Sub-Claim C5:&lt;br&gt;&lt;/b&gt;Suricata is regularly checked for updates" style="rounded=0;whiteSpace=wrap;html=1;" vertex="1" parent="1">
          <mxGeometry x="570" y="290" width="135" height="60" as="geometry" />
        </mxCell>
        <mxCell id="dZU5WLQ4Yzbyd16j06jQ-28" value="Rebuttal R6: Unless business grows exponentially" style="shape=note;whiteSpace=wrap;html=1;backgroundOutline=1;darkOpacity=0.05;size=17;fillColor=#FFF2CC;" vertex="1" parent="1">
          <mxGeometry x="240" y="410" width="140" height="60" as="geometry" />
        </mxCell>
        <mxCell id="dZU5WLQ4Yzbyd16j06jQ-33" value="" style="curved=1;endArrow=classic;html=1;rounded=0;entryX=0;entryY=0;entryDx=61.5;entryDy=0;exitX=0.25;exitY=1;exitDx=0;exitDy=0;entryPerimeter=0;" edge="1" parent="1" target="dZU5WLQ4Yzbyd16j06jQ-28">
          <mxGeometry width="50" height="50" relative="1" as="geometry">
            <mxPoint x="382" y="350" as="sourcePoint" />
            <mxPoint x="320" y="410" as="targetPoint" />
            <Array as="points">
              <mxPoint x="372" y="390" />
              <mxPoint x="320" y="380" />
            </Array>
          </mxGeometry>
        </mxCell>
        <mxCell id="dZU5WLQ4Yzbyd16j06jQ-34" value="" style="curved=1;endArrow=classic;html=1;rounded=0;entryX=0;entryY=0;entryDx=61.5;entryDy=0;exitX=0.25;exitY=1;exitDx=0;exitDy=0;entryPerimeter=0;" edge="1" parent="1">
          <mxGeometry width="50" height="50" relative="1" as="geometry">
            <mxPoint x="385" y="350" as="sourcePoint" />
            <mxPoint x="465" y="410" as="targetPoint" />
            <Array as="points">
              <mxPoint x="395" y="390" />
              <mxPoint x="447" y="380" />
            </Array>
          </mxGeometry>
        </mxCell>
        <mxCell id="dZU5WLQ4Yzbyd16j06jQ-35" value="Rebuttal R7: Unless hardware is end of life" style="shape=note;whiteSpace=wrap;html=1;backgroundOutline=1;darkOpacity=0.05;size=17;fillColor=#FFF2CC;" vertex="1" parent="1">
          <mxGeometry x="400" y="410" width="140" height="60" as="geometry" />
        </mxCell>
        <mxCell id="dZU5WLQ4Yzbyd16j06jQ-36" value="&lt;b&gt;Sub-Claim C8:&lt;br&gt;&lt;/b&gt;Suricata is retrofitted for future expansion" style="rounded=0;whiteSpace=wrap;html=1;" vertex="1" parent="1">
          <mxGeometry x="242.5" y="520" width="135" height="60" as="geometry" />
        </mxCell>
        <mxCell id="dZU5WLQ4Yzbyd16j06jQ-37" value="&lt;b&gt;Sub-Claim C9:&lt;br&gt;&lt;/b&gt;Suricata obsolete hardware is replaced" style="rounded=0;whiteSpace=wrap;html=1;" vertex="1" parent="1">
          <mxGeometry x="405" y="520" width="135" height="60" as="geometry" />
        </mxCell>
        <mxCell id="dZU5WLQ4Yzbyd16j06jQ-38" value="" style="curved=1;endArrow=classic;html=1;rounded=0;entryX=0.5;entryY=0;entryDx=0;entryDy=0;" edge="1" parent="1">
          <mxGeometry width="50" height="50" relative="1" as="geometry">
            <mxPoint x="309.5" y="470" as="sourcePoint" />
            <mxPoint x="310" y="520" as="targetPoint" />
            <Array as="points">
              <mxPoint x="309.5" y="490" />
            </Array>
          </mxGeometry>
        </mxCell>
        <mxCell id="dZU5WLQ4Yzbyd16j06jQ-39" value="" style="curved=1;endArrow=classic;html=1;rounded=0;entryX=0.5;entryY=0;entryDx=0;entryDy=0;" edge="1" parent="1">
          <mxGeometry width="50" height="50" relative="1" as="geometry">
            <mxPoint x="467.5" y="470" as="sourcePoint" />
            <mxPoint x="468" y="520" as="targetPoint" />
            <Array as="points">
              <mxPoint x="467.5" y="490" />
            </Array>
          </mxGeometry>
        </mxCell>
        <mxCell id="dZU5WLQ4Yzbyd16j06jQ-40" value="" style="curved=1;endArrow=classic;html=1;rounded=0;entryX=0.5;entryY=0;entryDx=0;entryDy=0;" edge="1" parent="1">
          <mxGeometry width="50" height="50" relative="1" as="geometry">
            <mxPoint x="637" y="230" as="sourcePoint" />
            <mxPoint x="637.5" y="290" as="targetPoint" />
            <Array as="points">
              <mxPoint x="637" y="250" />
            </Array>
          </mxGeometry>
        </mxCell>
        <mxCell id="dZU5WLQ4Yzbyd16j06jQ-42" style="edgeStyle=orthogonalEdgeStyle;curved=1;rounded=0;orthogonalLoop=1;jettySize=auto;html=1;entryX=0.5;entryY=0;entryDx=0;entryDy=0;endArrow=block;endFill=1;" edge="1" parent="1" target="dZU5WLQ4Yzbyd16j06jQ-43">
          <mxGeometry relative="1" as="geometry">
            <mxPoint x="-80" y="720" as="sourcePoint" />
            <Array as="points">
              <mxPoint x="-80" y="770" />
              <mxPoint x="-80" y="770" />
            </Array>
          </mxGeometry>
        </mxCell>
        <mxCell id="dZU5WLQ4Yzbyd16j06jQ-43" value="" style="ellipse;whiteSpace=wrap;html=1;aspect=fixed;fillColor=#CCCCCC;" vertex="1" parent="1">
          <mxGeometry x="-95" y="770" width="30" height="30" as="geometry" />
        </mxCell>
        <mxCell id="dZU5WLQ4Yzbyd16j06jQ-44" value="&lt;b&gt;Evidence E4:&lt;/b&gt;&lt;br&gt;Alerts Detection Log" style="ellipse;whiteSpace=wrap;html=1;aspect=fixed;fillColor=#ffffff;rounded=0;" vertex="1" parent="1">
          <mxGeometry x="-130" y="620" width="100" height="100" as="geometry" />
        </mxCell>
        <mxCell id="dZU5WLQ4Yzbyd16j06jQ-45" style="edgeStyle=orthogonalEdgeStyle;curved=1;rounded=0;orthogonalLoop=1;jettySize=auto;html=1;entryX=0.5;entryY=0;entryDx=0;entryDy=0;endArrow=block;endFill=1;" edge="1" parent="1" target="dZU5WLQ4Yzbyd16j06jQ-44">
          <mxGeometry relative="1" as="geometry">
            <mxPoint x="-80.5" y="580" as="sourcePoint" />
            <mxPoint x="-80.5" y="610" as="targetPoint" />
            <Array as="points" />
          </mxGeometry>
        </mxCell>
        <mxCell id="dZU5WLQ4Yzbyd16j06jQ-50" value="Rebuttal R8: Unless system updates are not managed" style="shape=note;whiteSpace=wrap;html=1;backgroundOutline=1;darkOpacity=0.05;size=17;fillColor=#FFF2CC;" vertex="1" parent="1">
          <mxGeometry x="570" y="410" width="140" height="60" as="geometry" />
        </mxCell>
        <mxCell id="dZU5WLQ4Yzbyd16j06jQ-51" value="" style="curved=1;endArrow=classic;html=1;rounded=0;entryX=0.5;entryY=0;entryDx=0;entryDy=0;" edge="1" parent="1">
          <mxGeometry width="50" height="50" relative="1" as="geometry">
            <mxPoint x="639.5" y="350" as="sourcePoint" />
            <mxPoint x="640" y="410" as="targetPoint" />
            <Array as="points">
              <mxPoint x="639.5" y="370" />
            </Array>
          </mxGeometry>
        </mxCell>
        <mxCell id="dZU5WLQ4Yzbyd16j06jQ-52" value="&lt;b&gt;Sub-Claim C10:&lt;br&gt;&lt;/b&gt;Suricata updates are managed" style="rounded=0;whiteSpace=wrap;html=1;" vertex="1" parent="1">
          <mxGeometry x="575" y="520" width="135" height="60" as="geometry" />
        </mxCell>
        <mxCell id="dZU5WLQ4Yzbyd16j06jQ-53" value="" style="curved=1;endArrow=classic;html=1;rounded=0;entryX=0.5;entryY=0;entryDx=0;entryDy=0;" edge="1" parent="1">
          <mxGeometry width="50" height="50" relative="1" as="geometry">
            <mxPoint x="642" y="470" as="sourcePoint" />
            <mxPoint x="642.5" y="520" as="targetPoint" />
            <Array as="points">
              <mxPoint x="642" y="490" />
            </Array>
          </mxGeometry>
        </mxCell>
        <mxCell id="dZU5WLQ4Yzbyd16j06jQ-54" value="&lt;b&gt;Evidence E5:&lt;/b&gt;&lt;br&gt;Business Needs Report" style="ellipse;whiteSpace=wrap;html=1;aspect=fixed;fillColor=#ffffff;rounded=0;" vertex="1" parent="1">
          <mxGeometry x="260" y="620" width="100" height="100" as="geometry" />
        </mxCell>
        <mxCell id="dZU5WLQ4Yzbyd16j06jQ-55" style="edgeStyle=orthogonalEdgeStyle;curved=1;rounded=0;orthogonalLoop=1;jettySize=auto;html=1;entryX=0.5;entryY=0;entryDx=0;entryDy=0;endArrow=block;endFill=1;" edge="1" parent="1">
          <mxGeometry relative="1" as="geometry">
            <mxPoint x="309.5" y="720" as="sourcePoint" />
            <mxPoint x="309.5" y="770" as="targetPoint" />
            <Array as="points">
              <mxPoint x="309.5" y="770" />
              <mxPoint x="309.5" y="770" />
            </Array>
          </mxGeometry>
        </mxCell>
        <mxCell id="dZU5WLQ4Yzbyd16j06jQ-56" value="" style="ellipse;whiteSpace=wrap;html=1;aspect=fixed;fillColor=#CCCCCC;" vertex="1" parent="1">
          <mxGeometry x="295" y="770" width="30" height="30" as="geometry" />
        </mxCell>
        <mxCell id="dZU5WLQ4Yzbyd16j06jQ-57" value="&lt;b&gt;Evidence E6:&lt;/b&gt;&lt;br&gt;Hardware End of Life Report from Manufacturer" style="ellipse;whiteSpace=wrap;html=1;aspect=fixed;fillColor=#ffffff;rounded=0;" vertex="1" parent="1">
          <mxGeometry x="420" y="620" width="100" height="100" as="geometry" />
        </mxCell>
        <mxCell id="dZU5WLQ4Yzbyd16j06jQ-58" style="edgeStyle=orthogonalEdgeStyle;curved=1;rounded=0;orthogonalLoop=1;jettySize=auto;html=1;entryX=0.5;entryY=0;entryDx=0;entryDy=0;endArrow=block;endFill=1;" edge="1" parent="1">
          <mxGeometry relative="1" as="geometry">
            <mxPoint x="469.5" y="720" as="sourcePoint" />
            <mxPoint x="469.5" y="770" as="targetPoint" />
            <Array as="points">
              <mxPoint x="469.5" y="770" />
              <mxPoint x="469.5" y="770" />
            </Array>
          </mxGeometry>
        </mxCell>
        <mxCell id="dZU5WLQ4Yzbyd16j06jQ-59" value="" style="ellipse;whiteSpace=wrap;html=1;aspect=fixed;fillColor=#CCCCCC;" vertex="1" parent="1">
          <mxGeometry x="455" y="770" width="30" height="30" as="geometry" />
        </mxCell>
        <mxCell id="dZU5WLQ4Yzbyd16j06jQ-60" style="edgeStyle=orthogonalEdgeStyle;curved=1;rounded=0;orthogonalLoop=1;jettySize=auto;html=1;entryX=0.5;entryY=0;entryDx=0;entryDy=0;endArrow=block;endFill=1;" edge="1" parent="1">
          <mxGeometry relative="1" as="geometry">
            <mxPoint x="309.5" y="580" as="sourcePoint" />
            <mxPoint x="310" y="620" as="targetPoint" />
            <Array as="points" />
          </mxGeometry>
        </mxCell>
        <mxCell id="dZU5WLQ4Yzbyd16j06jQ-61" style="edgeStyle=orthogonalEdgeStyle;curved=1;rounded=0;orthogonalLoop=1;jettySize=auto;html=1;entryX=0.5;entryY=0;entryDx=0;entryDy=0;endArrow=block;endFill=1;" edge="1" parent="1">
          <mxGeometry relative="1" as="geometry">
            <mxPoint x="467.5" y="580" as="sourcePoint" />
            <mxPoint x="468" y="620" as="targetPoint" />
            <Array as="points" />
          </mxGeometry>
        </mxCell>
        <mxCell id="dZU5WLQ4Yzbyd16j06jQ-62" value="&lt;b&gt;Evidence E7:&lt;/b&gt;&lt;br&gt;Suricata&#39;s Release Website" style="ellipse;whiteSpace=wrap;html=1;aspect=fixed;fillColor=#ffffff;rounded=0;" vertex="1" parent="1">
          <mxGeometry x="592.5" y="620" width="100" height="100" as="geometry" />
        </mxCell>
        <mxCell id="dZU5WLQ4Yzbyd16j06jQ-63" style="edgeStyle=orthogonalEdgeStyle;curved=1;rounded=0;orthogonalLoop=1;jettySize=auto;html=1;entryX=0.5;entryY=0;entryDx=0;entryDy=0;endArrow=block;endFill=1;" edge="1" parent="1">
          <mxGeometry relative="1" as="geometry">
            <mxPoint x="642" y="720" as="sourcePoint" />
            <mxPoint x="642" y="770" as="targetPoint" />
            <Array as="points">
              <mxPoint x="642" y="770" />
              <mxPoint x="642" y="770" />
            </Array>
          </mxGeometry>
        </mxCell>
        <mxCell id="dZU5WLQ4Yzbyd16j06jQ-64" value="" style="ellipse;whiteSpace=wrap;html=1;aspect=fixed;fillColor=#CCCCCC;" vertex="1" parent="1">
          <mxGeometry x="627.5" y="770" width="30" height="30" as="geometry" />
        </mxCell>
        <mxCell id="dZU5WLQ4Yzbyd16j06jQ-65" style="edgeStyle=orthogonalEdgeStyle;curved=1;rounded=0;orthogonalLoop=1;jettySize=auto;html=1;entryX=0.5;entryY=0;entryDx=0;entryDy=0;endArrow=block;endFill=1;" edge="1" parent="1">
          <mxGeometry relative="1" as="geometry">
            <mxPoint x="640" y="580" as="sourcePoint" />
            <mxPoint x="640.5" y="620" as="targetPoint" />
            <Array as="points" />
          </mxGeometry>
        </mxCell>
        <mxCell id="dZU5WLQ4Yzbyd16j06jQ-66" value="" style="curved=1;endArrow=classic;html=1;rounded=0;exitX=0.5;exitY=1;exitDx=0;exitDy=0;entryX=1;entryY=0.5;entryDx=0;entryDy=0;" edge="1" parent="1" source="dZU5WLQ4Yzbyd16j06jQ-22" target="dZU5WLQ4Yzbyd16j06jQ-44">
          <mxGeometry width="50" height="50" relative="1" as="geometry">
            <mxPoint x="155" y="630" as="sourcePoint" />
            <mxPoint x="105" y="680" as="targetPoint" />
            <Array as="points">
              <mxPoint x="110" y="650" />
              <mxPoint x="50" y="670" />
            </Array>
          </mxGeometry>
        </mxCell>
        <mxCell id="dZU5WLQ4Yzbyd16j06jQ-67" value="" style="curved=1;endArrow=classic;html=1;rounded=0;entryX=0;entryY=0;entryDx=61.5;entryDy=0;exitX=0.401;exitY=1.043;exitDx=0;exitDy=0;entryPerimeter=0;exitPerimeter=0;" edge="1" parent="1" source="dZU5WLQ4Yzbyd16j06jQ-15">
          <mxGeometry width="50" height="50" relative="1" as="geometry">
            <mxPoint x="-17.99999999999909" y="350" as="sourcePoint" />
            <mxPoint x="-79.99999999999909" y="410" as="targetPoint" />
            <Array as="points">
              <mxPoint x="10" y="380" />
              <mxPoint x="-27.99999999999909" y="390" />
              <mxPoint x="-79.99999999999909" y="380" />
            </Array>
          </mxGeometry>
        </mxCell>
        <mxCell id="dZU5WLQ4Yzbyd16j06jQ-69" value="" style="curved=1;endArrow=classic;html=1;rounded=0;entryX=0;entryY=0;entryDx=61.5;entryDy=0;exitX=0.401;exitY=1.043;exitDx=0;exitDy=0;entryPerimeter=0;exitPerimeter=0;" edge="1" parent="1">
          <mxGeometry width="50" height="50" relative="1" as="geometry">
            <mxPoint x="26.00000000000182" y="353" as="sourcePoint" />
            <mxPoint x="130.0000000000009" y="410" as="targetPoint" />
            <Array as="points">
              <mxPoint x="40.00000000000182" y="380" />
              <mxPoint x="78.00000000000091" y="390" />
              <mxPoint x="130.0000000000009" y="380" />
            </Array>
          </mxGeometry>
        </mxCell>
        <mxCell id="dZU5WLQ4Yzbyd16j06jQ-72" value="&lt;b&gt;Sub-Claim C2:&lt;br&gt;&lt;/b&gt;Suricata is set up for efficient packet capture" style="rounded=0;whiteSpace=wrap;html=1;" vertex="1" parent="1">
          <mxGeometry x="-455" y="300" width="135" height="60" as="geometry" />
        </mxCell>
        <mxCell id="dZU5WLQ4Yzbyd16j06jQ-73" value="&lt;b&gt;Evidence E2:&lt;/b&gt;&lt;br&gt;Load Balancing" style="ellipse;whiteSpace=wrap;html=1;aspect=fixed;fillColor=#ffffff;rounded=0;" vertex="1" parent="1">
          <mxGeometry x="-437.5" y="400" width="100" height="100" as="geometry" />
        </mxCell>
        <mxCell id="dZU5WLQ4Yzbyd16j06jQ-74" value="&lt;b&gt;Evidence E3:&lt;/b&gt;&lt;br&gt;Receive Side Scaling" style="ellipse;whiteSpace=wrap;html=1;aspect=fixed;fillColor=#ffffff;rounded=0;" vertex="1" parent="1">
          <mxGeometry x="-320" y="400" width="100" height="100" as="geometry" />
        </mxCell>
        <mxCell id="dZU5WLQ4Yzbyd16j06jQ-75" value="&lt;b&gt;Evidence E1:&lt;/b&gt;&lt;br&gt;Offloading" style="ellipse;whiteSpace=wrap;html=1;aspect=fixed;fillColor=#ffffff;rounded=0;" vertex="1" parent="1">
          <mxGeometry x="-560" y="400" width="100" height="100" as="geometry" />
        </mxCell>
        <mxCell id="dZU5WLQ4Yzbyd16j06jQ-76" value="" style="curved=1;endArrow=classic;html=1;rounded=0;entryX=0.5;entryY=0;entryDx=0;entryDy=0;exitX=0.236;exitY=1.043;exitDx=0;exitDy=0;exitPerimeter=0;" edge="1" parent="1" source="dZU5WLQ4Yzbyd16j06jQ-6" target="dZU5WLQ4Yzbyd16j06jQ-72">
          <mxGeometry width="50" height="50" relative="1" as="geometry">
            <mxPoint x="-50" y="230" as="sourcePoint" />
            <mxPoint x="-219" y="290" as="targetPoint" />
            <Array as="points">
              <mxPoint x="120" y="260" />
              <mxPoint x="-80" y="233" />
              <mxPoint x="-370" y="240" />
            </Array>
          </mxGeometry>
        </mxCell>
        <mxCell id="dZU5WLQ4Yzbyd16j06jQ-81" value="" style="curved=1;endArrow=classic;html=1;rounded=0;entryX=0.5;entryY=0;entryDx=0;entryDy=0;" edge="1" parent="1">
          <mxGeometry width="50" height="50" relative="1" as="geometry">
            <mxPoint x="-388" y="360" as="sourcePoint" />
            <mxPoint x="-387.59000000000003" y="400" as="targetPoint" />
            <Array as="points">
              <mxPoint x="-388.09000000000003" y="360" />
            </Array>
          </mxGeometry>
        </mxCell>
        <mxCell id="dZU5WLQ4Yzbyd16j06jQ-82" value="" style="curved=1;endArrow=classic;html=1;rounded=0;entryX=0.4;entryY=0;entryDx=0;entryDy=0;entryPerimeter=0;" edge="1" parent="1">
          <mxGeometry width="50" height="50" relative="1" as="geometry">
            <mxPoint x="-390" y="360" as="sourcePoint" />
            <mxPoint x="-510" y="400" as="targetPoint" />
            <Array as="points">
              <mxPoint x="-510" y="370" />
            </Array>
          </mxGeometry>
        </mxCell>
        <mxCell id="dZU5WLQ4Yzbyd16j06jQ-83" value="" style="curved=1;endArrow=classic;html=1;rounded=0;entryX=0.4;entryY=0;entryDx=0;entryDy=0;entryPerimeter=0;" edge="1" parent="1">
          <mxGeometry width="50" height="50" relative="1" as="geometry">
            <mxPoint x="-390" y="360" as="sourcePoint" />
            <mxPoint x="-270" y="400" as="targetPoint" />
            <Array as="points">
              <mxPoint x="-270" y="370" />
            </Array>
          </mxGeometry>
        </mxCell>
        <mxCell id="dZU5WLQ4Yzbyd16j06jQ-88" style="edgeStyle=orthogonalEdgeStyle;curved=1;rounded=0;orthogonalLoop=1;jettySize=auto;html=1;entryX=0.5;entryY=0;entryDx=0;entryDy=0;endArrow=block;endFill=1;" edge="1" parent="1">
          <mxGeometry relative="1" as="geometry">
            <mxPoint x="-510.53" y="500" as="sourcePoint" />
            <mxPoint x="-510.53" y="550" as="targetPoint" />
            <Array as="points">
              <mxPoint x="-510.53" y="550" />
              <mxPoint x="-510.53" y="550" />
            </Array>
          </mxGeometry>
        </mxCell>
        <mxCell id="dZU5WLQ4Yzbyd16j06jQ-89" style="edgeStyle=orthogonalEdgeStyle;curved=1;rounded=0;orthogonalLoop=1;jettySize=auto;html=1;entryX=0.5;entryY=0;entryDx=0;entryDy=0;endArrow=block;endFill=1;" edge="1" parent="1">
          <mxGeometry relative="1" as="geometry">
            <mxPoint x="-388.09" y="500" as="sourcePoint" />
            <mxPoint x="-388.09" y="550" as="targetPoint" />
            <Array as="points">
              <mxPoint x="-388.09" y="550" />
              <mxPoint x="-388.09" y="550" />
            </Array>
          </mxGeometry>
        </mxCell>
        <mxCell id="dZU5WLQ4Yzbyd16j06jQ-90" style="edgeStyle=orthogonalEdgeStyle;curved=1;rounded=0;orthogonalLoop=1;jettySize=auto;html=1;entryX=0.5;entryY=0;entryDx=0;entryDy=0;endArrow=block;endFill=1;" edge="1" parent="1">
          <mxGeometry relative="1" as="geometry">
            <mxPoint x="-270.59" y="500" as="sourcePoint" />
            <mxPoint x="-270.59" y="550" as="targetPoint" />
            <Array as="points">
              <mxPoint x="-270.59" y="550" />
              <mxPoint x="-270.59" y="550" />
            </Array>
          </mxGeometry>
        </mxCell>
        <mxCell id="dZU5WLQ4Yzbyd16j06jQ-91" value="" style="ellipse;whiteSpace=wrap;html=1;aspect=fixed;fillColor=#CCCCCC;" vertex="1" parent="1">
          <mxGeometry x="-402.5" y="550" width="30" height="30" as="geometry" />
        </mxCell>
        <mxCell id="dZU5WLQ4Yzbyd16j06jQ-92" value="" style="ellipse;whiteSpace=wrap;html=1;aspect=fixed;fillColor=#CCCCCC;" vertex="1" parent="1">
          <mxGeometry x="-525" y="550" width="30" height="30" as="geometry" />
        </mxCell>
        <mxCell id="dZU5WLQ4Yzbyd16j06jQ-93" value="" style="ellipse;whiteSpace=wrap;html=1;aspect=fixed;fillColor=#CCCCCC;" vertex="1" parent="1">
          <mxGeometry x="-285" y="550" width="30" height="30" as="geometry" />
        </mxCell>
      </root>
    </mxGraphModel>
  </diagram>
</mxfile>
